<svg xmlns="http://www.w3.org/2000/svg" version="1.1" xmlns:xlink="http://www.w3.org/1999/xlink" xmlns:svgjs="http://svgjs.dev/svgjs" width="2000" height="1500" viewBox="0 0 2000 1500"><rect width="2000" height="1500" fill="#ffffff"></rect><g transform="matrix(0.75,0,0,0.75,249.090909090909,631.7562287503939)"><svg viewBox="0 0 396 62" data-background-color="#ffffff" preserveAspectRatio="xMidYMid meet" height="313" width="2000" xmlns="http://www.w3.org/2000/svg" xmlns:xlink="http://www.w3.org/1999/xlink"><g id="tight-bounds" transform="matrix(1,0,0,1,0.2400000000000091,0.2294518316318488)"><svg viewBox="0 0 395.52 61.5410963367363" height="61.5410963367363" width="395.52"><g><svg viewBox="0 0 481.4772842102889 74.91565516670599" height="61.5410963367363" width="395.52"><g><rect width="2.6366483245998595" height="54.47918483541209" x="402.4222207450258" y="10.218235165646949" fill="#ff2222" opacity="1" stroke-width="0" stroke="transparent" fill-opacity="1" class="rect-qz-0" data-fill-palette-color="primary" rx="1%" id="qz-0" data-palette-color="#ff2222"></rect></g><g><rect width="2.6366483245998595" height="54.47918483541209" x="408.5099794421385" y="10.218235165646949" fill="#ff2222" opacity="1" stroke-width="0" stroke="transparent" fill-opacity="1" class="rect-qz-1" data-fill-palette-color="primary" rx="1%" id="qz-1" data-palette-color="#ff2222"></rect></g><g transform="matrix(1,0,0,1,0,10.35375552593404)"><svg viewBox="0 0 395.52 54.20814411483791" height="54.20814411483791" width="395.52"><g id="textblocktransform"><svg viewBox="0 0 395.52 54.20814411483791" height="54.20814411483791" width="395.52" id="textblock"><g><svg viewBox="0 0 395.52 29.237282676027256" height="29.237282676027256" width="395.52"><g transform="matrix(1,0,0,1,0,0)"><svg width="395.52" viewBox="-4.85 -35.8 484.28 35.8" height="29.237282676027256" data-palette-color="#ff2222"><g class="wordmark-text-0" data-fill-palette-color="primary" id="text-0"><path d="M36.15-2.15L41.95-2.15 41.95 0 30.8 0 27.3-7.95 9.8-7.95 6.3 0-4.85 0-4.85-2.15 0.95-2.15 15.4-34.95 21.7-34.95 36.15-2.15ZM12.2-13.4L24.9-13.4 18.55-27.8 12.2-13.4ZM37.1-2.15L41.95-2.15 41.95-34.95 47.85-34.95 68.15-8.85 68.15-34.95 74.05-34.95 74.05-2.15 78.9-2.15 78.9 0 67.65 0 47.85-25.5 47.85 0 37.1 0 37.1-2.15Z" fill="#ff2222" data-fill-palette-color="primary"></path><path d="M78.9-2.15L92.6-2.15 92.6 0 78.9 0 78.9-2.15ZM123.05-2.15L130.45-2.15 130.45 0 92.6 0 92.6-2.15 104.7-2.15Q100.35-4.35 97.77-8.6 95.2-12.85 95.2-18.2L95.2-18.2Q95.2-25.85 100.5-30.83 105.8-35.8 113.37-35.8 120.95-35.8 125.95-31.4L125.95-31.4 122.8-26.9Q120.75-28.65 118.67-29.33 116.6-30 113.85-30L113.85-30Q108.5-30 104.92-26.8 101.35-23.6 101.35-18.05 101.35-12.5 104.85-9.13 108.35-5.75 113.32-5.75 118.3-5.75 121.65-7.9L121.65-7.9 121.65-17.5 127.55-17.5 127.55-5.55Q125.7-3.5 123.05-2.15L123.05-2.15ZM130.45-2.15L135.3-2.15 135.3-34.95 141.2-34.95 141.2-2.15 146.05-2.15 146.05 0 130.45 0 130.45-2.15ZM182.19-2.15L187.99-2.15 187.99 0 176.84 0 173.34-7.95 155.84-7.95 152.34 0 141.19 0 141.19-2.15 146.99-2.15 161.44-34.95 167.74-34.95 182.19-2.15ZM158.24-13.4L170.94-13.4 164.59-27.8 158.24-13.4ZM183.14-2.15L187.99-2.15 187.99-34.95 193.89-34.95 214.19-8.85 214.19-34.95 220.09-34.95 220.09-2.15 224.94-2.15 224.94 0 213.69 0 193.89-25.5 193.89 0 183.14 0 183.14-2.15ZM255.39-2.15L262.79-2.15 262.79 0 224.94 0 224.94-2.15 237.04-2.15Q232.69-4.35 230.11-8.6 227.54-12.85 227.54-18.2L227.54-18.2Q227.54-25.85 232.84-30.83 238.14-35.8 245.71-35.8 253.29-35.8 258.29-31.4L258.29-31.4 255.14-26.9Q253.09-28.65 251.01-29.33 248.94-30 246.19-30L246.19-30Q240.84-30 237.26-26.8 233.69-23.6 233.69-18.05 233.69-12.5 237.19-9.13 240.69-5.75 245.66-5.75 250.64-5.75 253.99-7.9L253.99-7.9 253.99-17.5 259.89-17.5 259.89-5.55Q258.04-3.5 255.39-2.15L255.39-2.15Z" fill="#61777f" data-fill-palette-color="secondary"></path><path d="M262.79-2.15L276.49-2.15 276.49 0 262.79 0 262.79-2.15ZM294.54-2.15L306.69-2.15 306.69 0 276.49 0 276.49-2.15 288.64-2.15 288.64-29.55 278.04-29.55 278.04-34.95 305.14-34.95 305.14-29.55 294.54-29.55 294.54-2.15ZM339.49-2.15L344.34-2.15 344.34 0 333.54 0 325.19-11.75 317.44-11.75 317.44 0 306.69 0 306.69-2.15 311.54-2.15 311.54-34.95 324.54-34.95Q332.54-34.95 335.99-32.25 339.44-29.55 339.44-23.6L339.44-23.6Q339.44-14.95 331.89-12.7L331.89-12.7 339.49-2.15ZM324.79-17.1Q329.79-17.1 331.59-18.65 333.39-20.2 333.39-23.63 333.39-27.05 331.54-28.33 329.69-29.6 324.94-29.6L324.94-29.6 317.44-29.6 317.44-17.1 324.79-17.1ZM379.23-2.15L385.03-2.15 385.03 0 373.88 0 370.38-7.95 352.88-7.95 349.38 0 338.23 0 338.23-2.15 344.03-2.15 358.48-34.95 364.78-34.95 379.23-2.15ZM355.28-13.4L367.98-13.4 361.63-27.8 355.28-13.4ZM401.83-2.15L415.18-2.15 415.18 0 380.18 0 380.18-2.15 393.48-2.15 380.33-34.95 386.93-34.95 397.68-8.85 408.43-34.95 415.03-34.95 401.83-2.15ZM415.18-2.15L420.03-2.15 420.03-34.95 444.58-34.95 444.58-29.4 425.93-29.4 425.93-20.15 442.68-20.15 442.68-14.9 425.93-14.9 425.93-5.55 445.18-5.55 445.18-2.15 450.03-2.15 450.03 0 415.18 0 415.18-2.15ZM474.58-2.15L479.43-2.15 479.43 0 447.88 0 447.88-2.15 452.73-2.15 452.73-34.95 458.63-34.95 458.63-5.6 474.58-5.6 474.58-2.15Z" fill="#ff0000" data-fill-palette-color="accent"></path></g></svg></g></svg></g><g transform="matrix(1,0,0,1,314.7447121734058,36.139503421053064)"><svg viewBox="0 0 80.77528782659417 18.068640693784843" height="18.068640693784843" width="80.77528782659417"><g transform="matrix(1,0,0,1,0,0)"><svg width="80.77528782659417" viewBox="0.02 -34.86 160.76 35.96" height="18.068640693784843" data-palette-color="#61777f"><path d="M29.39-33.91L29.39-33.91Q29.39-32.79 27.03-32.79L27.03-32.79 21.36-32.79 21.36 0 8.86 0 8.86-32.79 5.2-32.79Q3.32-32.79 2.61-32.62L2.61-32.62Q1.68-32.42 1.27-32.42L1.27-32.42Q0.02-32.42 0.02-33.4L0.02-33.4Q0.02-34.55 2.44-34.55L2.44-34.55 24.22-34.55Q25.9-34.55 26.71-34.69L26.71-34.69Q27.69-34.86 28.17-34.86L28.17-34.86Q29.39-34.86 29.39-33.91ZM34.47 0L34.47-26.07 44.97-26.07 44.97-18.41Q46.65-22.58 48.59-24.55 50.53-26.51 52.49-26.51L52.49-26.51Q53.59-26.51 54.23-25.94 54.88-25.37 54.88-24.66 54.88-23.95 54.69-23.54 54.49-23.12 54.17-22.83L54.17-22.83Q53.51-22.22 52.93-22.22L52.93-22.22Q52-22.22 51.56-22.41L51.56-22.41Q50.8-22.75 50.22-22.75 49.63-22.75 48.73-21.81 47.82-20.87 46.99-19.21L46.99-19.21Q44.97-15.16 44.97-10.42L44.97-10.42 44.97 0 34.47 0ZM74.36 0L74.36-1.61Q71.24 0.46 67.43 0.46L67.43 0.46Q62.37 0.46 59.32-2.08L59.32-2.08Q56.15-4.69 56.15-9.33L56.15-9.33Q56.15-13.43 59.3-16.06L59.3-16.06Q62.52-18.73 67.77-18.73L67.77-18.73Q71.28-18.73 74.36-17.38L74.36-17.38 74.36-24.1Q72.14-24.73 70.44-24.73 68.75-24.73 67.57-24.58 66.4-24.44 65.35-24.15L65.35-24.15Q63.08-23.51 61.91-22.44L61.91-22.44Q61.23-21.8 60.66-21.8 60.1-21.8 59.81-22.08 59.52-22.36 59.52-22.71 59.52-23.05 59.64-23.33 59.76-23.61 60.1-23.9L60.1-23.9Q60.83-24.54 62.54-25.17L62.54-25.17Q66.08-26.51 69.65-26.51L69.65-26.51Q80.49-26.51 83.49-21.34L83.49-21.34Q84.81-19.04 84.81-15.31L84.81-15.31 84.81 0 74.36 0ZM74.36-3.71L74.36-15.48Q71.28-16.97 68.23-16.97L68.23-16.97Q67.74-16.97 67.3-16.89L67.3-16.89 67.3-1.37Q67.43-1.34 67.57-1.34 67.72-1.34 67.87-1.34L67.87-1.34Q71.21-1.34 74.36-3.71L74.36-3.71ZM101.73 1.1L88.32-26.07 99.38-26.07 106.02-12.38 110.2-20.68Q111.49-23.34 111.82-24.63 112.15-25.93 112.48-26.22 112.81-26.51 113.29-26.51 113.76-26.51 114.03-26.2 114.3-25.88 114.3-25.56 114.3-25.24 114.24-24.93 114.18-24.61 114.01-24.07L114.01-24.07Q113.64-23.07 112.47-20.61L112.47-20.61 101.73 1.1ZM141.2-5.93L141.2-5.93Q142.15-5.93 142.15-5.05L142.15-5.05Q142.15-4.39 141.3-3.49L141.3-3.49Q137.44 0.46 130.73 0.46L130.73 0.46Q124.7 0.46 120.57-3.17L120.57-3.17Q116.3-6.96 116.3-12.74L116.3-12.74Q116.3-18.65 120.16-22.46L120.16-22.46Q124.23-26.51 131-26.51L131-26.51Q136.42-26.51 140.1-23.22L140.1-23.22Q144.08-19.68 144.08-13.92L144.08-13.92Q144.08-13.09 144.03-12.16L144.03-12.16 127.92-12.16 127.92-1.68Q129.58-1.34 131.66-1.34L131.66-1.34Q136.05-1.34 139.15-4.25L139.15-4.25Q139.78-4.88 140.05-5.25L140.05-5.25Q140.62-5.93 141.2-5.93ZM134.68-13.94L134.68-24.27Q133.1-24.73 131.09-24.73 129.09-24.73 127.92-24.46L127.92-24.46 127.92-13.94 134.68-13.94ZM150.28 0L150.28-34.55 160.78-34.55 160.78 0 150.28 0Z" opacity="1" transform="matrix(1,0,0,1,0,0)" fill="#61777f" class="slogan-text-1" data-fill-palette-color="secondary" id="text-1"></path></svg></g></svg></g></svg></g></svg></g><g transform="matrix(1,0,0,1,418.04884851176416,0)"><svg viewBox="0 0 63.42843569852458 74.91565516670599" height="74.91565516670599" width="63.42843569852458"><g><svg xmlns="http://www.w3.org/2000/svg" xmlns:xlink="http://www.w3.org/1999/xlink" version="1.1" x="0" y="0" viewBox="8.916 2.381 72.168 85.238" enable-background="new 0 0 90 90" xml:space="preserve" height="74.91565516670599" width="63.42843569852458" class="icon-icon-0" data-fill-palette-color="accent" id="icon-0"><path d="M23.289 19.074c-1.502 0-2.719-1.217-2.719-2.719V5.1c0-1.502 1.217-2.719 2.719-2.719 1.498 0 2.717 1.217 2.717 2.719v11.256C26.006 17.857 24.787 19.074 23.289 19.074z" fill="#ff0000" data-fill-palette-color="accent"></path><path d="M56.504 19.074c-1.5 0-2.717-1.217-2.717-2.719V5.1c0-1.502 1.217-2.719 2.717-2.719 1.502 0 2.719 1.217 2.719 2.719v11.256C59.223 17.857 58.006 19.074 56.504 19.074z" fill="#ff0000" data-fill-palette-color="accent"></path><path d="M29.02 71.936h-3.162V57.277h2.336c0.131-0.648 0.289-1.281 0.461-1.908h-2.797V41.182h11.77c1.011-0.875 2.083-1.678 3.21-2.406v-13.23h13.077v8.729c0.629-0.057 1.265-0.092 1.903-0.105v-8.623h11.563v10.73c1.207 0.492 2.373 1.063 3.49 1.707v-21.24c0-3.531-2.873-6.406-6.404-6.406h-2.723v6.018c0 2.895-2.349 5.242-5.242 5.242s-5.239-2.348-5.239-5.242v-6.018H28.529v6.018c0 2.895-2.348 5.242-5.24 5.242-2.896 0-5.242-2.348-5.242-5.242v-6.018h-2.725c-3.533 0-6.406 2.875-6.406 6.406v52.279c0 3.533 2.873 6.408 6.406 6.408h15.084C29.871 74.303 29.408 73.137 29.02 71.936zM25.857 25.545h13.076v13.73H25.857V25.545zM23.951 71.936h-8.629c-1.605 0-2.912-1.307-2.912-2.912V57.277h11.541V71.936zM23.951 55.369H12.41V41.182h11.541V55.369zM23.951 39.275H12.41v-13.73h11.541V39.275z" fill="#ff0000" data-fill-palette-color="accent"></path><path d="M56.504 87.619c-13.553 0-24.578-11.027-24.578-24.582 0-13.553 11.025-24.576 24.578-24.576 13.555 0 24.58 11.023 24.58 24.576C81.084 76.592 70.059 87.619 56.504 87.619zM56.504 44.121c-10.432 0-18.918 8.484-18.918 18.916 0 10.434 8.486 18.92 18.918 18.92 10.434 0 18.918-8.486 18.918-18.92C75.422 52.605 66.938 44.121 56.504 44.121z" fill="#ff0000" data-fill-palette-color="accent"></path><path d="M71.121 56.975c-2.113-1.391-6.533-0.41-11.438 1.482l-8.615-8.414-2.902 0.102 6.928 10.268c-2.852 1.313-5.674 2.771-8.146 4.119l-3.575-2.701L41.888 62l3.694 4.652 0.314 5.93 1.227-0.854 0.889-4.393c2.744-0.629 5.826-1.41 8.83-2.313l1.613 12.281 2.24-1.854 0.877-12.01C66.5 61.611 70.461 59.416 71.121 56.975z" fill="#ff0000" data-fill-palette-color="accent"></path></svg></g></svg></g></svg></g><defs></defs></svg><rect width="395.52" height="61.5410963367363" fill="none" stroke="none" visibility="hidden"></rect></g></svg></g></svg>