<?xml version="1.0" standalone="no"?>
<!DOCTYPE svg PUBLIC "-//W3C//DTD SVG 20010904//EN" "http://www.w3.org/TR/2001/REC-SVG-20010904/DTD/svg10.dtd">
<svg version="1.0" xmlns="http://www.w3.org/2000/svg"
  width="2000.000000pt" height="2000.000000pt" viewBox="0 0 2000.000000 2000.000000"
  preserveAspectRatio="xMidYMid meet">

  <g transform="translate(0.000000,2000.000000) scale(0.100000,-0.100000)"
    fill="#FF4D4D" stroke="none">
    <path
      d="M10560 17965 c-133 -61 -192 -211 -131 -338 30 -63 74 -98 194 -158
272 -136 409 -276 409 -418 0 -127 -103 -223 -382 -357 -323 -155 -403 -203
-536 -315 -122 -104 -204 -213 -260 -346 -15 -37 -29 -69 -30 -71 -1 -2 -45 4
-98 13 -120 19 -109 20 -144 -10 -37 -31 -61 -97 -69 -192 l-6 -71 -101 -7
c-262 -17 -607 -57 -560 -65 l31 -5 -132 -251 c-72 -139 -201 -397 -287 -575
-472 -978 -555 -1232 -603 -1844 -38 -491 -59 -661 -100 -825 -75 -303 -191
-497 -480 -806 -96 -103 -131 -130 -504 -395 -432 -307 -417 -292 -308 -305
46 -5 56 -3 92 23 164 119 286 202 279 191 -4 -7 -22 -33 -40 -58 -29 -40
-104 -167 -104 -175 0 -16 314 -19 2005 -20 1498 -1 1951 -3 1990 -13 28 -7
160 -26 295 -42 135 -16 252 -31 260 -33 24 -5 -175 -16 -495 -28 -240 -8
-305 -13 -324 -26 -33 -21 -181 -32 -461 -33 -240 0 -310 -5 -310 -22 0 -6 70
-8 177 -6 124 2 177 0 180 -8 5 -16 -110 -31 -327 -44 -96 -6 -182 -12 -190
-13 -8 -1 56 -15 142 -30 86 -16 169 -32 185 -37 16 -5 -154 -9 -408 -9 -666
-1 -1190 -12 -1186 -25 5 -15 266 -114 302 -115 97 -3 242 -72 346 -165 26
-22 74 -58 108 -78 69 -42 74 -57 43 -138 -24 -62 -45 -70 -185 -70 -98 0
-124 -3 -157 -20 -22 -11 -40 -24 -40 -29 0 -5 -19 -37 -43 -72 -31 -46 -48
-86 -61 -140 -12 -53 -25 -84 -42 -100 -17 -16 -24 -33 -24 -58 0 -20 -12 -72
-26 -116 -30 -93 -55 -243 -60 -365 -3 -47 -20 -368 -40 -715 -29 -513 -35
-669 -30 -840 9 -329 15 -371 71 -510 53 -131 62 -148 147 -249 68 -81 100
-157 100 -240 0 -63 -15 -92 -66 -130 -22 -17 -46 -22 -115 -24 -117 -5 -214
22 -380 104 -144 71 -176 100 -225 204 -45 96 -48 184 -8 316 19 63 33 133 37
194 4 52 20 165 37 250 25 128 32 193 38 370 4 118 13 274 21 347 11 117 11
149 -4 275 -18 147 -28 292 -47 668 -6 118 -16 260 -21 315 -6 55 -14 163 -19
240 -7 134 -20 204 -100 570 -32 141 -82 234 -138 256 -14 6 -54 2 -115 -10
-50 -11 -117 -22 -147 -26 -104 -12 -263 -46 -359 -77 -207 -65 -332 -155
-420 -302 -65 -108 -88 -128 -151 -134 -59 -5 -160 13 -210 38 -75 38 -177
169 -247 316 -23 47 -39 71 -47 67 -6 -4 -212 -150 -458 -325 -246 -175 -452
-318 -458 -318 -6 0 -10 34 -10 88 l0 88 455 323 455 324 0 58 c0 33 -2 59 -5
59 -7 0 -132 -88 -565 -395 -179 -127 -330 -234 -335 -237 -14 -8 -1 231 20
374 56 384 173 710 354 983 101 154 209 272 487 531 414 387 527 511 629 690
150 262 177 429 149 925 -13 249 -14 332 -5 427 34 360 174 626 551 1042 143
157 548 597 638 693 41 43 72 81 69 83 -8 8 -465 -146 -627 -211 -328 -131
-788 -357 -905 -445 -59 -44 -257 -251 -410 -430 -357 -416 -692 -908 -1212
-1780 -371 -623 -467 -858 -519 -1275 -4 -33 -8 -280 -9 -550 -2 -691 -9 -729
-236 -1281 -118 -289 -168 -434 -195 -568 l-17 -88 -64 -46 c-34 -25 -63 -48
-63 -52 0 -3 27 -25 59 -48 58 -41 60 -43 66 -99 26 -225 112 -441 320 -803
218 -378 289 -521 344 -695 50 -154 65 -258 65 -455 0 -197 -6 -248 -74 -655
-67 -402 -74 -465 -74 -670 0 -207 14 -305 70 -475 39 -121 143 -334 218 -447
55 -84 373 -414 564 -587 573 -517 1226 -935 1931 -1235 l73 -31 -7 43 c-15
85 -75 315 -110 422 -120 354 -279 587 -770 1120 -369 402 -534 643 -624 910
-49 148 -64 257 -58 435 5 171 15 229 88 530 118 487 126 665 44 985 -18 72
-47 168 -64 214 -18 46 -30 85 -29 86 2 2 292 -203 645 -454 477 -339 641
-460 636 -471 -3 -8 -8 -96 -10 -195 -4 -156 -2 -194 16 -283 51 -245 148
-415 446 -777 164 -200 208 -258 277 -365 141 -216 216 -433 258 -745 6 -44
15 -323 20 -620 4 -297 13 -594 20 -660 11 -117 58 -447 65 -453 19 -19 516
-122 750 -156 281 -40 278 -40 271 -19 -23 75 -80 336 -100 463 -46 280 -51
359 -51 720 1 375 3 414 70 1015 25 220 48 439 51 487 4 47 10 92 14 98 5 9
97 -51 286 -186 154 -108 293 -208 309 -220 l30 -23 407 290 c224 159 409 289
412 289 2 0 7 -19 11 -42 4 -24 36 -189 72 -368 84 -420 102 -549 110 -750 7
-192 -6 -323 -47 -485 -40 -159 -94 -292 -256 -625 -78 -163 -164 -347 -190
-410 -51 -125 -104 -273 -104 -291 0 -20 357 8 683 52 122 17 160 26 167 39
11 21 65 233 90 355 29 143 58 364 85 665 54 592 100 825 213 1077 94 212 191
339 514 670 237 244 354 387 425 520 52 97 97 231 118 347 18 108 19 340 2
484 l-13 102 385 274 c213 151 395 281 406 290 16 12 7 11 -50 -4 -38 -10 -99
-25 -135 -32 -60 -13 -87 -31 -343 -212 -153 -109 -279 -197 -281 -195 -2 2
-10 39 -18 81 -18 91 -33 69 137 189 l119 83 -119 14 c-192 21 -402 72 -465
112 -31 20 -2 17 69 -6 40 -14 75 -23 78 -20 7 7 -83 51 -142 69 -27 9 -75 29
-105 46 -30 17 -76 42 -102 56 -26 14 -52 34 -58 45 -6 11 -17 20 -26 20 -8 0
-34 18 -58 40 -24 22 -48 40 -53 40 -13 0 -86 78 -144 155 -108 141 -203 325
-240 460 -48 179 -36 159 -107 168 -82 10 -121 -10 -192 -97 -52 -65 -54 -66
-102 -66 -51 0 -68 15 -83 70 -10 38 -37 103 -51 120 -17 22 -26 205 -13 274
9 52 8 64 -11 109 -20 46 -22 100 -4 129 3 4 29 -8 59 -27 29 -19 76 -43 102
-54 67 -26 325 -73 333 -61 4 6 11 104 18 218 10 195 4 470 -14 618 -3 28 -2
54 3 57 18 11 91 -15 116 -41 14 -15 41 -68 60 -117 19 -50 56 -133 82 -184
62 -121 69 -184 31 -256 -14 -28 -36 -63 -48 -78 -18 -23 -24 -44 -26 -106 -4
-85 7 -121 37 -121 10 0 24 -7 31 -15 16 -19 31 -19 24 0 -9 22 42 20 55 -2 8
-16 73 -19 727 -39 394 -12 734 -25 753 -29 20 -4 43 -13 52 -21 15 -13 17
-13 23 2 6 15 9 15 27 -4 14 -16 30 -22 57 -20 l37 1 -37 4 c-21 2 -38 9 -38
15 0 18 211 4 225 -15 6 -9 23 -19 38 -22 15 -4 27 -12 27 -17 0 -7 -48 -8
-147 -2 -151 8 -179 9 -528 17 -110 2 -155 2 -100 0 73 -3 104 -8 117 -20 10
-9 18 -19 18 -23 0 -3 -165 -6 -367 -5 -288 0 -367 -3 -371 -13 -3 -10 23 -11
123 -6 108 6 127 5 123 -7 -3 -8 -24 -16 -54 -19 -33 -3 -49 -10 -49 -19 0 -8
-6 -16 -14 -19 -10 -3 -12 0 -8 12 4 9 2 16 -2 16 -5 0 -11 -7 -15 -15 -8 -22
-33 -18 -39 5 -5 20 -37 29 -37 10 0 -5 5 -10 12 -10 6 0 9 -2 6 -5 -2 -3 -72
-10 -153 -15 -82 -6 -183 -17 -225 -26 -41 -8 -95 -14 -120 -13 -63 2 -70 1
-70 -16 0 -11 12 -15 46 -15 32 0 44 -4 41 -12 -4 -14 -69 -17 -129 -6 -35 6
-38 5 -38 -17 0 -30 83 -241 149 -378 87 -181 229 -358 371 -466 94 -71 276
-165 350 -181 85 -18 342 -24 443 -11 l89 12 756 538 c417 296 758 538 759
537 2 -2 -23 -62 -55 -135 l-57 -132 -516 -367 c-284 -202 -516 -368 -514
-370 1 -2 39 6 83 17 44 12 95 21 114 21 27 1 95 45 376 245 189 135 345 245
348 245 8 0 -64 -138 -214 -410 -163 -295 -245 -467 -296 -621 -61 -184 -71
-250 -70 -479 0 -185 4 -230 38 -455 77 -508 57 -746 -89 -1037 -120 -241
-293 -439 -745 -850 -531 -483 -699 -706 -863 -1143 -40 -108 -98 -285 -93
-285 9 0 374 126 456 158 371 143 715 311 1055 515 188 113 411 261 443 296
53 56 324 427 458 626 306 456 760 1207 904 1497 141 285 212 510 239 760 6
54 11 292 11 531 0 446 8 582 41 747 25 123 100 342 189 555 150 357 200 516
220 709 25 227 -30 467 -171 747 -23 46 -105 194 -182 329 -221 385 -302 568
-349 783 -19 87 -22 132 -22 312 0 223 9 296 84 725 48 276 63 412 63 590 0
275 -46 466 -176 723 -108 213 -199 344 -543 787 -87 113 -185 244 -217 291
-65 95 -138 161 -403 360 -317 238 -676 460 -1042 643 -258 129 -586 271 -565
244 36 -45 610 -798 658 -863 223 -302 350 -553 402 -795 28 -133 24 -386 -11
-610 -75 -486 -75 -661 0 -885 77 -232 207 -420 544 -790 292 -320 394 -451
498 -637 162 -292 258 -658 278 -1052 l7 -139 -35 24 c-19 13 -445 316 -947
673 l-912 649 -140 176 c-298 373 -413 584 -469 860 -36 179 -43 330 -36 751
8 422 1 573 -35 790 -27 161 -84 385 -149 586 -90 275 -458 1239 -578 1516
-24 55 -15 52 -262 98 -91 17 -174 33 -186 35 -18 4 -21 12 -21 59 0 64 -18
113 -43 121 -10 3 -134 24 -276 45 -141 22 -259 42 -262 45 -3 3 13 26 35 52
76 90 167 149 433 279 286 141 363 188 469 289 251 238 317 529 191 835 -92
223 -275 394 -604 566 -118 61 -135 68 -200 71 -50 2 -81 -1 -106 -12z m-375
-2275 c121 -5 239 -12 261 -15 l41 -6 17 -127 c61 -464 194 -1248 262 -1542
20 -86 95 -335 169 -560 234 -710 283 -929 292 -1310 5 -182 4 -213 -8 -204
-17 14 -1500 1067 -1514 1076 -6 4 -95 -54 -199 -128 l-188 -135 6 63 c4 35
15 162 26 283 71 786 307 2584 343 2607 16 11 226 10 492 -2z m281 -3357 l752
-534 -14 -72 c-8 -40 -14 -76 -14 -81 0 -4 -6 -6 -14 -3 -8 3 -334 233 -724
510 -390 277 -720 512 -733 520 -24 16 -28 14 -219 -123 -107 -76 -196 -133
-198 -127 -1 7 1 51 5 99 l8 87 189 135 c104 74 194 132 200 129 6 -3 349
-246 762 -540z m3842 -2730 l372 -265 -1 -72 c0 -39 -4 -79 -8 -89 -6 -16
-125 65 -781 532 l-773 550 -33 80 c-18 44 -46 105 -63 134 -17 30 -31 57 -31
60 0 3 213 -145 473 -330 259 -185 640 -455 845 -600z m-3578 291 c36 -11 67
-29 92 -54 35 -35 38 -42 38 -97 0 -60 0 -61 -53 -111 -135 -127 -439 -280
-659 -332 -88 -20 -782 -141 -930 -161 -93 -13 -118 -6 -118 31 0 57 127 94
441 130 l184 21 205 81 c261 103 300 123 441 224 125 89 193 157 237 235 31
55 39 58 122 33z m-470 -740 c182 -47 349 -148 526 -317 97 -93 118 -119 158
-197 46 -89 69 -181 49 -193 -6 -4 -43 32 -84 80 -85 98 -237 237 -323 296
-83 56 -230 124 -322 148 -63 16 -96 19 -162 15 -127 -9 -169 -22 -264 -82
-95 -60 -185 -159 -234 -258 -15 -28 -42 -68 -62 -88 l-36 -38 -85 0 -84 0
-40 43 c-38 41 -39 44 -34 98 15 170 188 327 492 447 216 85 317 94 505 46z
m26 -560 c82 -39 225 -229 258 -343 14 -49 14 -63 0 -150 -15 -96 -64 -218
-91 -228 -7 -3 -13 -13 -13 -23 0 -26 -54 -95 -109 -138 -45 -36 -66 -44 -205
-77 -86 -20 -160 -34 -165 -30 -6 3 -35 6 -66 6 -70 1 -112 -28 -149 -103 -21
-43 -26 -66 -26 -131 0 -91 8 -111 51 -126 115 -40 487 -7 678 61 101 36 312
128 450 198 55 27 113 50 128 50 l27 0 -35 -36 c-71 -75 -403 -351 -476 -396
-192 -119 -398 -170 -688 -171 -172 -1 -258 16 -315 62 -45 36 -59 81 -66 210
-5 104 1 157 38 324 15 70 10 81 -61 122 -28 16 -51 32 -51 36 0 3 9 18 21 33
l21 27 43 -26 c24 -14 48 -25 53 -25 5 0 51 78 101 173 111 208 193 326 326
467 55 59 120 132 145 164 25 32 54 64 65 72 26 19 69 18 111 -2z m2570 -379
c-4 -12 4 -15 44 -15 28 0 50 -4 50 -10 0 -11 -33 -13 -79 -4 -21 5 -31 12
-31 25 0 11 5 19 11 19 6 0 9 -7 5 -15z m322 -32 c3 -10 -14 -13 -65 -13 -82
0 -143 9 -143 22 0 14 203 5 208 -9z m-690 -15 c-3 -9 -32 -14 -86 -16 -68 -2
-82 0 -82 13 0 12 15 15 86 15 64 0 85 -3 82 -12z m302 -7 c0 -17 -32 -21
-155 -21 -100 0 -124 3 -129 15 -5 13 15 15 139 15 80 0 145 -4 145 -9z m85
-1 c3 -6 -1 -13 -10 -16 -19 -8 -30 0 -20 15 8 14 22 14 30 1z m75 1 c0 -6 -4
-13 -10 -16 -5 -3 -10 1 -10 9 0 9 5 16 10 16 6 0 10 -4 10 -9z m-690 -41 c0
-5 -7 -10 -15 -10 -8 0 -15 5 -15 10 0 6 7 10 15 10 8 0 15 -4 15 -10z m118
-2 c-7 -20 -68 -23 -68 -4 0 12 10 16 36 16 24 0 34 -4 32 -12z m182 2 c0 -5
-18 -10 -41 -10 -24 0 -38 4 -34 10 3 6 22 10 41 10 19 0 34 -4 34 -10z m-860
-90 c0 -5 -9 -10 -21 -10 -11 0 -17 5 -14 10 3 6 13 10 21 10 8 0 14 -4 14
-10z m-5802 -598 c210 -150 553 -393 761 -542 l379 -269 -20 -80 -20 -80 -42
28 c-22 16 -335 238 -695 494 l-653 465 -59 133 c-33 73 -59 135 -59 137 0 3
6 0 13 -5 6 -6 184 -132 395 -281z m5927 -365 c11 -8 14 -16 8 -20 -6 -4 -18
2 -28 13 -21 23 -8 27 20 7z m115 -77 c0 -5 -7 -10 -15 -10 -8 0 -15 5 -15 10
0 6 7 10 15 10 8 0 15 -4 15 -10z m60 -30 c0 -5 -4 -10 -10 -10 -5 0 -10 5
-10 10 0 6 5 10 10 10 6 0 10 -4 10 -10z m-1501 -1812 l1 -36 -392 -279 c-216
-154 -398 -282 -403 -285 -6 -4 -147 91 -315 211 l-305 216 -3 71 c-5 132 -21
136 273 -73 143 -101 278 -198 301 -213 l41 -29 394 280 394 280 7 -53 c3 -29
6 -69 7 -90z" />
    <path
      d="M10195 7902 c-17 -9 -56 -36 -86 -58 -30 -23 -73 -51 -97 -63 -28
-14 -42 -28 -42 -41 0 -17 7 -20 50 -20 115 0 300 105 300 170 0 32 -76 40
-125 12z" />
    <path d="M8773 15623 c9 -2 23 -2 30 0 6 3 -1 5 -18 5 -16 0 -22 -2 -12 -5z" />
    <path d="M8703 15613 c9 -2 23 -2 30 0 6 3 -1 5 -18 5 -16 0 -22 -2 -12 -5z" />
    <path d="M8638 15603 c6 -2 18 -2 25 0 6 3 1 5 -13 5 -14 0 -19 -2 -12 -5z" />
    <path d="M8588 15593 c7 -3 16 -2 19 1 4 3 -2 6 -13 5 -11 0 -14 -3 -6 -6z" />
    <path
      d="M4964 13687 c-275 -279 -406 -429 -619 -712 -379 -501 -717 -1110
-928 -1672 -19 -51 -33 -93 -31 -93 10 0 166 315 247 500 152 347 275 584 399
769 82 123 149 206 652 815 262 318 476 580 473 582 -2 2 -89 -83 -193 -189z" />
    <path
      d="M16486 10348 c-7 -65 -50 -466 -76 -718 -60 -577 -49 -858 51 -1320
22 -102 57 -268 78 -370 22 -102 41 -178 44 -170 9 23 34 209 51 375 62 607
44 1231 -54 1824 -28 169 -78 422 -85 429 -2 2 -6 -20 -9 -50z" />
    <path d="M6795 10350 c-7 -11 42 -37 51 -27 4 3 4 13 1 22 -7 17 -42 21 -52 5z" />
    <path d="M6522 10083 c-18 -7 -4 -23 19 -23 12 0 19 5 17 12 -5 14 -18 18 -36
11z" />
    <path d="M6035 10010 c3 -5 13 -10 21 -10 8 0 14 5 14 10 0 6 -9 10 -21 10
-11 0 -17 -4 -14 -10z" />
    <path
      d="M3022 9735 c-41 -314 -46 -419 -47 -875 0 -488 8 -607 61 -980 23
-162 98 -562 113 -603 6 -17 72 557 91 798 5 66 10 224 10 352 0 310 -14 413
-121 906 -27 126 -60 288 -73 360 l-22 132 -12 -90z" />
    <path d="M13325 8250 c3 -5 8 -10 11 -10 2 0 4 5 4 10 0 6 -5 10 -11 10 -5 0
-7 -4 -4 -10z" />
    <path d="M12528 8223 c6 -2 18 -2 25 0 6 3 1 5 -13 5 -14 0 -19 -2 -12 -5z" />
    <path
      d="M13321 7004 c-13 -9 -53 -24 -89 -34 -97 -25 -205 -61 -216 -71 -13
-12 -9 -11 71 5 112 24 196 54 237 86 41 31 38 43 -3 14z" />
    <path d="M12465 6880 c-4 -6 3 -10 14 -10 25 0 27 6 6 13 -8 4 -17 2 -20 -3z" />
    <path d="M12280 6876 c0 -2 9 -6 20 -9 11 -3 18 -1 14 4 -5 9 -34 13 -34 5z" />
    <path d="M12675 6870 c3 -5 8 -10 11 -10 2 0 4 5 4 10 0 6 -5 10 -11 10 -5 0
-7 -4 -4 -10z" />
    <path d="M12423 6853 c9 -2 23 -2 30 0 6 3 -1 5 -18 5 -16 0 -22 -2 -12 -5z" />
    <path d="M12471 6846 c2 -2 31 -6 64 -9 39 -4 50 -3 30 2 -31 9 -102 14 -94 7z" />
  </g>
</svg>